<?xml version="1.0" encoding="UTF-8" standalone="no"?>
<!DOCTYPE svg PUBLIC "-//W3C//DTD SVG 1.1//EN"
  "http://www.w3.org/Graphics/SVG/1.1/DTD/svg11.dtd">

<!-- Defines the svg -->
<svg width="20cm" height="11cm" viewBox="0 0 800 420"
  xmlns="http://www.w3.org/2000/svg" version="1.1">

  <!-- The SVG is supposed to look like and open book -->

  <!-- The outer edges of the book -->
  <rect x="200" y="100" width="400" height="220" fill="rgb(255, 255, 255)" stroke="rgb(0, 0, 0)" stroke-width="4" />

  <!-- Separetes the book into two pages -->
  <line x1="400" y1="100" x2="400" y2="320" stroke="rgb(0, 0, 0)"
    stroke-width="3" />

  <!-- Lines representing text on the left page -->
  <line x1="220" y1="120" x2="380" y2="120" stroke="rgb(0, 0, 0)" />
  <line x1="220" y1="140" x2="380" y2="140" stroke="rgb(0, 0, 0)" />
  <line x1="220" y1="160" x2="380" y2="160" stroke="rgb(0, 0, 0)" />
  <line x1="220" y1="180" x2="380" y2="180" stroke="rgb(0, 0, 0)" />
  <line x1="220" y1="200" x2="380" y2="200" stroke="rgb(0, 0, 0)" />
  <line x1="220" y1="220" x2="380" y2="220" stroke="rgb(0, 0, 0)" />
  <line x1="220" y1="240" x2="380" y2="240" stroke="rgb(0, 0, 0)" />
  <line x1="220" y1="260" x2="380" y2="260" stroke="rgb(0, 0, 0)" />
  <line x1="220" y1="280" x2="380" y2="280" stroke="rgb(0, 0, 0)" />
  <line x1="220" y1="300" x2="380" y2="300" stroke="rgb(0, 0, 0)" />

  <!-- Lines representing text on the right page -->
  <line x1="420" y1="120" x2="580" y2="120" stroke="rgb(0, 0, 0)" />
  <line x1="420" y1="140" x2="580" y2="140" stroke="rgb(0, 0, 0)" />
  <line x1="420" y1="160" x2="580" y2="160" stroke="rgb(0, 0, 0)" />
  <line x1="420" y1="180" x2="580" y2="180" stroke="rgb(0, 0, 0)" />
  <line x1="420" y1="200" x2="580" y2="200" stroke="rgb(0, 0, 0)" />
  <line x1="420" y1="220" x2="580" y2="220" stroke="rgb(0, 0, 0)" />
  <line x1="420" y1="240" x2="580" y2="240" stroke="rgb(0, 0, 0)" />
  <line x1="420" y1="260" x2="580" y2="260" stroke="rgb(0, 0, 0)" />
  <line x1="420" y1="280" x2="580" y2="280" stroke="rgb(0, 0, 0)" />
  <line x1="420" y1="300" x2="580" y2="300" stroke="rgb(0, 0, 0)" />


</svg>
